<svg width="48" height="48" viewBox="0 0 48 48" fill="none" xmlns="http://www.w3.org/2000/svg">
<path fill-rule="evenodd" clip-rule="evenodd" d="M31.0374 18.4136C31.0376 18.4136 31.0364 18.4161 31.0332 18.421C31.0356 18.4161 31.0372 18.4136 31.0374 18.4136ZM30.861 18.6C30.6367 18.407 30.2392 18.1586 29.6212 17.9114C28.2825 17.3759 26.296 17 24 17C21.704 17 19.7175 17.3759 18.3788 17.9114C17.7608 18.1586 17.3633 18.407 17.139 18.6C17.3633 18.793 17.7608 19.0414 18.3788 19.2886C19.7175 19.8241 21.704 20.2 24 20.2C26.296 20.2 28.2825 19.8241 29.6212 19.2886C30.2392 19.0414 30.6367 18.793 30.861 18.6ZM16.9626 18.4136C16.9628 18.4136 16.9644 18.4161 16.9668 18.421C16.9636 18.4161 16.9624 18.4136 16.9626 18.4136ZM16.9626 18.7864C16.9624 18.7864 16.9636 18.7839 16.9668 18.779C16.9644 18.7839 16.9628 18.7864 16.9626 18.7864ZM31.0332 18.779C31.0364 18.7839 31.0376 18.7864 31.0374 18.7864C31.0372 18.7864 31.0356 18.7839 31.0332 18.779ZM24 22.2C26.8273 22.2 29.35 21.6785 31 20.8629V22C31 22.0255 30.9898 22.1696 30.7079 22.4195C30.4272 22.6683 29.964 22.9381 29.3057 23.185C27.9966 23.6759 26.121 24 24 24C21.879 24 20.0034 23.6759 18.6943 23.185C18.036 22.9381 17.5728 22.6683 17.2921 22.4195C17.0102 22.1696 17 22.0255 17 22V20.8629C18.65 21.6785 21.1727 22.2 24 22.2ZM30.008 25.0576C30.3574 24.9266 30.6909 24.7798 31 24.6162V25.6246C31 25.7187 30.9574 25.9043 30.6773 26.1744C30.3943 26.4473 29.9322 26.7391 29.2793 27.0053C27.9785 27.5357 26.1125 27.8867 24 27.8867C21.8875 27.8867 20.0215 27.5357 18.7207 27.0053C18.0678 26.7391 17.6057 26.4473 17.3227 26.1744C17.0426 25.9043 17 25.7187 17 25.6246V24.6162C17.3091 24.7798 17.6426 24.9266 17.992 25.0576C19.5783 25.6525 21.7027 26 24 26C26.2973 26 28.4217 25.6525 30.008 25.0576ZM15 22V23V25.6246C15 25.7532 15.0103 25.8784 15.0297 26H15V29.6246C15 30.4313 15.4052 31.1038 15.9346 31.6143C16.4613 32.122 17.1708 32.5332 17.9656 32.8573C19.5602 33.5075 21.6942 33.8867 24 33.8867C26.3058 33.8867 28.4398 33.5075 30.0344 32.8573C30.8292 32.5332 31.5387 32.122 32.0654 31.6143C32.5948 31.1038 33 30.4313 33 29.6246V26H32.9703C32.9897 25.8784 33 25.7532 33 25.6246V23V22V19H32.9451C32.9814 18.8687 33 18.7352 33 18.6C33 16.6118 28.9706 15 24 15C19.0294 15 15 16.6118 15 18.6C15 18.7352 15.0186 18.8687 15.0549 19H15V22ZM31 28.3928C30.6989 28.564 30.3745 28.7186 30.0344 28.8572C28.4398 29.5075 26.3058 29.8867 24 29.8867C21.6942 29.8867 19.5602 29.5075 17.9656 28.8572C17.6255 28.7186 17.3011 28.564 17 28.3928V29.6246C17 29.7187 17.0426 29.9043 17.3227 30.1744C17.6057 30.4473 18.0678 30.7391 18.7207 31.0053C20.0215 31.5357 21.8875 31.8867 24 31.8867C26.1125 31.8867 27.9785 31.5357 29.2793 31.0053C29.9322 30.7391 30.3943 30.4473 30.6773 30.1744C30.9574 29.9043 31 29.7187 31 29.6246V28.3928Z" fill="#3E74FF"/>
</svg>
