<svg width="145" height="44" viewBox="0 0 145 44" fill="none" xmlns="http://www.w3.org/2000/svg">
<path d="M13.328 24.1699C9.54999 24.1699 6.37832 23.0411 3.813 20.7834C1.271 18.5037 0 15.6042 0 12.0849C0 8.54356 1.28266 5.64406 3.84798 3.38644C6.38998 1.12881 9.63161 0 13.5729 0C16.1149 0 18.4936 0.55334 20.7091 1.66002V7.27088C18.447 6.0978 16.2198 5.51126 14.0276 5.51126C11.8121 5.51126 9.99309 6.131 8.5705 7.37048C7.17124 8.60996 6.4716 10.2146 6.4716 12.1845C6.4716 14.243 7.13626 15.8698 8.46556 17.065C9.79486 18.2602 11.4157 18.8578 13.328 18.8578C14.9605 18.8578 16.2548 18.4926 17.211 17.7622V10.1593H23.5426V20.4846C22.5632 21.5028 21.1522 22.377 19.3099 23.1075C17.4209 23.8157 15.4269 24.1699 13.328 24.1699Z" fill="#494949"/>
<path d="M39.7285 16.9986H28.4294V11.8193H39.7285V16.9986Z" fill="#494949"/>
<path d="M58.2581 24.1699C54.3402 24.1699 51.0869 23.0411 48.4982 20.7834C45.9096 18.5258 44.6153 15.6263 44.6153 12.0849C44.6153 8.54356 45.8979 5.64406 48.4632 3.38644C51.0519 1.12881 54.3052 0 58.2231 0C60.5552 0 62.6658 0.442672 64.5548 1.32802V7.20448C62.6425 6.07567 60.5552 5.51126 58.2931 5.51126C56.2408 5.51126 54.5267 6.131 53.1508 7.37048C51.7748 8.60996 51.0869 10.1814 51.0869 12.0849C51.0869 14.0327 51.7865 15.6152 53.1858 16.8326C54.6083 18.0499 56.3924 18.6586 58.538 18.6586C61.1033 18.6586 63.2488 18.0389 64.9746 16.7994V22.7091C62.969 23.6829 60.7301 24.1699 58.2581 24.1699Z" fill="#494949"/>
<path d="M73.5407 23.7051H66.8942L77.1788 0.332003H83.2306L93.5152 23.7051H86.7638L84.6998 18.7914H75.6046L73.5407 23.7051ZM80.1522 7.80209L77.5986 14.0106H82.7059L80.1522 7.80209Z" fill="#494949"/>
<path d="M102.514 23.7051H96.2176V0.464805H107.727C110.432 0.464805 112.566 1.13988 114.128 2.49003C115.737 3.81804 116.542 5.53339 116.542 7.63609C116.542 9.14117 116.122 10.4692 115.283 11.6201C114.443 12.7711 113.277 13.6232 111.784 14.1766L119.2 23.7051H111.959L105.033 14.8406H102.514V23.7051ZM102.514 5.51126V9.96011H107.377C108.24 9.96011 108.916 9.77198 109.406 9.39571C109.919 8.9973 110.175 8.45503 110.175 7.76889C110.175 7.08275 109.919 6.54047 109.406 6.14207C108.916 5.72153 108.24 5.51126 107.377 5.51126H102.514Z" fill="#494949"/>
<path d="M131.462 23.7051H121.702V0.464805H131.462C135.427 0.464805 138.68 1.54935 141.222 3.71844C143.741 5.88753 145 8.67636 145 12.0849C145 15.5378 143.741 18.3377 141.222 20.4846C138.727 22.6316 135.473 23.7051 131.462 23.7051ZM127.999 5.71046V18.4594H131.007C133.386 18.4594 135.228 17.9061 136.534 16.7994C137.84 15.6927 138.493 14.1212 138.493 12.0849C138.493 10.0486 137.84 8.47716 136.534 7.37048C135.228 6.2638 133.386 5.71046 131.007 5.71046H127.999Z" fill="#494949"/>
<path d="M48.7352 40.6135H47.4758V32.5956H48.7352V40.6135ZM47.4758 30.4376C47.3126 30.2716 47.231 30.0724 47.231 29.84C47.231 29.6076 47.3126 29.4084 47.4758 29.2424C47.6507 29.0764 47.8606 28.9934 48.1055 28.9934C48.3504 28.9934 48.5603 29.0764 48.7352 29.2424C48.9101 29.4084 48.9975 29.6076 48.9975 29.84C48.9975 30.0724 48.9101 30.2716 48.7352 30.4376C48.5603 30.5926 48.3504 30.67 48.1055 30.67C47.8606 30.67 47.6507 30.5926 47.4758 30.4376Z" fill="#494949"/>
<path d="M51.7895 35.2019V40.6135H50.5302V32.5956H51.7895V33.8241C52.6874 32.8723 53.8126 32.3964 55.1652 32.3964C56.203 32.3964 56.9959 32.6897 57.544 33.2763C58.1037 33.8517 58.3835 34.6707 58.3835 35.7331V40.6135H57.1242V35.9987C57.1242 34.3497 56.3255 33.5253 54.728 33.5253C54.1449 33.5253 53.5794 33.6968 53.0313 34.0399C52.4716 34.3829 52.0577 34.7703 51.7895 35.2019Z" fill="#494949"/>
<path d="M62.6749 40.8127C61.9986 40.8127 61.334 40.7353 60.681 40.5803C60.0397 40.4143 59.5383 40.2151 59.1768 39.9827V38.7543C60.2029 39.4073 61.3573 39.7337 62.64 39.7337C63.3629 39.7337 63.9284 39.6231 64.3366 39.4017C64.7563 39.1693 64.9662 38.8539 64.9662 38.4555C64.9662 38.1124 64.768 37.8302 64.3715 37.6089C64.2549 37.5204 63.9576 37.4208 63.4795 37.3101C63.3396 37.2658 63.1472 37.2216 62.9023 37.1773C62.5875 37.0998 62.3951 37.0556 62.3251 37.0445C61.264 36.79 60.5061 36.4912 60.0513 36.1481C59.5966 35.794 59.3692 35.2849 59.3692 34.6209C59.3692 33.9237 59.6665 33.3814 60.2612 32.9941C60.8559 32.5956 61.6896 32.3964 62.7624 32.3964C64.0334 32.3964 65.0595 32.6344 65.8408 33.1103V34.2889C64.8846 33.7466 63.876 33.4755 62.8149 33.4755C62.1036 33.4755 61.5614 33.5806 61.1882 33.7909C60.8267 34.0011 60.646 34.2889 60.646 34.6541C60.646 35.0525 60.8617 35.3513 61.2932 35.5505C61.3748 35.5726 61.4739 35.6113 61.5905 35.6667C61.7188 35.7109 61.847 35.7497 61.9753 35.7829L62.3601 35.8825C62.64 35.971 62.9198 36.0319 63.1997 36.0651C64.2491 36.3086 65.0187 36.6074 65.5084 36.9615C66.0099 37.3156 66.2606 37.8192 66.2606 38.4721C66.2606 39.2025 65.9224 39.7725 65.2461 40.1819C64.5698 40.6025 63.7127 40.8127 62.6749 40.8127Z" fill="#494949"/>
<path d="M68.5657 39.3353V43.9336H67.3063V32.5956H68.5657V33.8739C69.3586 32.8889 70.4488 32.3964 71.8364 32.3964C73.0841 32.3964 74.1044 32.8059 74.8973 33.6249C75.6902 34.4438 76.0867 35.4343 76.0867 36.5963C76.0867 37.7694 75.6902 38.7654 74.8973 39.5843C74.1044 40.4033 73.0841 40.8127 71.8364 40.8127C70.4488 40.8127 69.3586 40.3203 68.5657 39.3353ZM68.5657 35.2849V37.9243C68.8105 38.4555 69.207 38.8927 69.755 39.2357C70.3031 39.5677 70.8978 39.7337 71.5391 39.7337C72.4836 39.7337 73.259 39.4349 73.8654 38.8373C74.4834 38.2176 74.7924 37.4706 74.7924 36.5963C74.7924 35.722 74.4834 34.9805 73.8654 34.3719C73.259 33.7743 72.4836 33.4755 71.5391 33.4755C70.9094 33.4755 70.3206 33.647 69.7725 33.9901C69.2245 34.3221 68.8222 34.7537 68.5657 35.2849Z" fill="#494949"/>
<path d="M78.4784 40.6135H77.2191V32.5956H78.4784V40.6135ZM77.2191 30.4376C77.0558 30.2716 76.9742 30.0724 76.9742 29.84C76.9742 29.6076 77.0558 29.4084 77.2191 29.2424C77.394 29.0764 77.6039 28.9934 77.8488 28.9934C78.0936 28.9934 78.3035 29.0764 78.4784 29.2424C78.6533 29.4084 78.7408 29.6076 78.7408 29.84C78.7408 30.0724 78.6533 30.2716 78.4784 30.4376C78.3035 30.5926 78.0936 30.67 77.8488 30.67C77.6039 30.67 77.394 30.5926 77.2191 30.4376Z" fill="#494949"/>
<path d="M81.5328 40.6135H80.2734V32.5956H81.5328V34.1229C81.8476 33.6027 82.314 33.1877 82.932 32.8779C83.55 32.5569 84.203 32.3964 84.891 32.3964V33.6083C84.5062 33.6083 84.1564 33.6581 83.8416 33.7577C83.3052 33.8905 82.8329 34.1229 82.4248 34.4549C82.0167 34.7758 81.7193 35.141 81.5328 35.5505V40.6135Z" fill="#494949"/>
<path d="M89.3711 40.8127C88.0535 40.8127 86.9457 40.4199 86.0479 39.6341C85.1617 38.8595 84.7186 37.8524 84.7186 36.6129C84.7186 35.4177 85.115 34.4161 85.9079 33.6083C86.7125 32.8004 87.7445 32.3964 89.0038 32.3964C89.6801 32.3964 90.2806 32.5292 90.8054 32.7949C91.3301 33.0494 91.744 33.3869 92.0472 33.8075C92.3504 34.228 92.5778 34.6762 92.7294 35.1521C92.8809 35.6169 92.9567 36.0872 92.9567 36.5631V36.8951H86.0129C86.0828 37.7583 86.4443 38.45 87.0973 38.9701C87.762 39.4792 88.6015 39.7337 89.616 39.7337C90.5955 39.7337 91.4992 39.4847 92.3271 38.9867V40.0491C91.6391 40.5582 90.6538 40.8127 89.3711 40.8127ZM86.0304 35.9157H91.6799C91.6449 35.2959 91.4001 34.7371 90.9453 34.2391C90.5139 33.73 89.8492 33.4755 88.9513 33.4755C88.1118 33.4755 87.4238 33.7189 86.8874 34.2059C86.3627 34.7039 86.077 35.2738 86.0304 35.9157Z" fill="#494949"/>
<path d="M100.495 40.8127C99.7133 40.8127 99.1186 40.5969 98.7105 40.1653C98.3141 39.7227 98.1158 39.114 98.1158 38.3393V33.6415H96.1219V32.5956H98.1158V30.1222H99.3752V32.5956H102.331V33.6415H99.3752V37.9741C99.3752 38.616 99.486 39.0587 99.7075 39.3021C99.9407 39.5567 100.32 39.6839 100.844 39.6839C101.357 39.6839 101.818 39.5733 102.226 39.3519V40.4475C101.865 40.691 101.288 40.8127 100.495 40.8127Z" fill="#494949"/>
<path d="M103.747 33.6415C104.598 32.8115 105.694 32.3964 107.035 32.3964C108.376 32.3964 109.472 32.8115 110.323 33.6415C111.174 34.4493 111.6 35.4398 111.6 36.6129C111.6 37.786 111.174 38.7765 110.323 39.5843C109.46 40.4033 108.364 40.8127 107.035 40.8127C105.705 40.8127 104.609 40.4033 103.747 39.5843C102.895 38.7765 102.47 37.786 102.47 36.6129C102.47 35.4398 102.895 34.4493 103.747 33.6415ZM110.306 36.6129C110.306 35.7276 109.997 34.9805 109.379 34.3719C108.761 33.7743 107.979 33.4755 107.035 33.4755C106.09 33.4755 105.309 33.7743 104.691 34.3719C104.073 34.9805 103.764 35.7276 103.764 36.6129C103.764 37.4872 104.073 38.2286 104.691 38.8373C105.309 39.4349 106.09 39.7337 107.035 39.7337C107.979 39.7337 108.761 39.4349 109.379 38.8373C109.997 38.2286 110.306 37.4872 110.306 36.6129Z" fill="#494949"/>
<path d="M115.759 40.6135V28.9934H117.018V33.8739C117.811 32.8889 118.901 32.3964 120.289 32.3964C121.536 32.3964 122.557 32.8059 123.35 33.6249C124.143 34.4438 124.539 35.4398 124.539 36.6129C124.539 37.7749 124.143 38.7654 123.35 39.5843C122.557 40.4033 121.536 40.8127 120.289 40.8127C118.901 40.8127 117.811 40.3203 117.018 39.3353V40.6135H115.759ZM117.018 35.2849V37.9243C117.274 38.4555 117.677 38.8927 118.225 39.2357C118.773 39.5677 119.362 39.7337 119.991 39.7337C120.936 39.7337 121.711 39.4349 122.318 38.8373C122.936 38.2286 123.245 37.4872 123.245 36.6129C123.245 35.7386 122.936 34.9971 122.318 34.3885C121.711 33.7798 120.936 33.4755 119.991 33.4755C119.35 33.4755 118.755 33.647 118.207 33.9901C117.659 34.3221 117.263 34.7537 117.018 35.2849Z" fill="#494949"/>
<path d="M131.933 38.0073V32.5956H133.192V40.6135H131.933V39.3851C131.035 40.3369 129.91 40.8127 128.557 40.8127C127.52 40.8127 126.721 40.525 126.161 39.9495C125.613 39.363 125.339 38.5385 125.339 37.4761V32.5956H126.598V37.2105C126.598 38.8595 127.397 39.6839 128.995 39.6839C129.578 39.6839 130.137 39.5179 130.674 39.1859C131.245 38.8318 131.665 38.4389 131.933 38.0073Z" fill="#494949"/>
<path d="M135.245 44C134.638 44 134.189 43.9225 133.898 43.7676V42.6554C134.259 42.8324 134.644 42.921 135.052 42.921C135.565 42.921 136.008 42.7162 136.382 42.3068C136.755 41.9084 137.145 41.2443 137.553 40.3147L133.793 32.5956H135.192L138.183 38.9037L141.087 32.5956H142.451L138.271 41.5099C137.513 43.17 136.504 44 135.245 44Z" fill="#494949"/>
</svg>
